G04 EAGLE Gerber RS-274X export*
G75*
%MOMM*%
%FSLAX34Y34*%
%LPD*%
%INTop Copper*%
%IPPOS*%
%AMOC8*
5,1,8,0,0,1.08239X$1,22.5*%
G01*
%ADD10R,1.676400X1.676400*%
%ADD11C,1.676400*%
%ADD12C,6.200000*%
%ADD13C,4.445000*%
%ADD14C,0.254000*%
%ADD15C,0.508000*%


D10*
X697386Y41124D03*
X907386Y41124D03*
X697386Y546124D03*
X907386Y546124D03*
X960784Y41632D03*
X1170784Y41632D03*
X960784Y546632D03*
X1170784Y546632D03*
D11*
X1054100Y942340D03*
X1029100Y942340D03*
D10*
X1079100Y942340D03*
D11*
X51000Y942340D03*
D10*
X76000Y942340D03*
D11*
X851100Y942340D03*
D10*
X876100Y942340D03*
D11*
X940000Y942340D03*
D10*
X965000Y942340D03*
D11*
X139900Y942340D03*
D10*
X164900Y942340D03*
D11*
X228800Y942340D03*
D10*
X253800Y942340D03*
D11*
X317700Y942340D03*
D10*
X342700Y942340D03*
D11*
X406600Y942340D03*
D10*
X431600Y942340D03*
D11*
X495500Y942340D03*
D10*
X520500Y942340D03*
D11*
X584400Y942340D03*
D10*
X609400Y942340D03*
D11*
X673300Y942340D03*
D10*
X698300Y942340D03*
D11*
X762200Y942340D03*
D10*
X787200Y942340D03*
X70300Y891540D03*
D11*
X70300Y866140D03*
X70300Y840740D03*
X70300Y815340D03*
X70300Y789940D03*
X70300Y764540D03*
X70300Y739140D03*
X70300Y713740D03*
X158300Y713740D03*
X158300Y739140D03*
X158300Y764540D03*
X158300Y789940D03*
X158300Y815340D03*
X158300Y840740D03*
X158300Y866140D03*
X158300Y891540D03*
D10*
X248100Y891540D03*
D11*
X248100Y866140D03*
X248100Y840740D03*
X248100Y815340D03*
X248100Y789940D03*
X248100Y764540D03*
X248100Y739140D03*
X248100Y713740D03*
X336100Y713740D03*
X336100Y739140D03*
X336100Y764540D03*
X336100Y789940D03*
X336100Y815340D03*
X336100Y840740D03*
X336100Y866140D03*
X336100Y891540D03*
D10*
X425900Y891540D03*
D11*
X425900Y866140D03*
X425900Y840740D03*
X425900Y815340D03*
X425900Y789940D03*
X425900Y764540D03*
X425900Y739140D03*
X425900Y713740D03*
X513900Y713740D03*
X513900Y739140D03*
X513900Y764540D03*
X513900Y789940D03*
X513900Y815340D03*
X513900Y840740D03*
X513900Y866140D03*
X513900Y891540D03*
D10*
X603700Y891540D03*
D11*
X603700Y866140D03*
X603700Y840740D03*
X603700Y815340D03*
X603700Y789940D03*
X603700Y764540D03*
X603700Y739140D03*
X603700Y713740D03*
X691700Y713740D03*
X691700Y739140D03*
X691700Y764540D03*
X691700Y789940D03*
X691700Y815340D03*
X691700Y840740D03*
X691700Y866140D03*
X691700Y891540D03*
D10*
X781500Y891540D03*
D11*
X781500Y866140D03*
X781500Y840740D03*
X781500Y815340D03*
X781500Y789940D03*
X781500Y764540D03*
X781500Y739140D03*
X781500Y713740D03*
X869500Y713740D03*
X869500Y739140D03*
X869500Y764540D03*
X869500Y789940D03*
X869500Y815340D03*
X869500Y840740D03*
X869500Y866140D03*
X869500Y891540D03*
D10*
X946600Y891540D03*
D11*
X946600Y866140D03*
X946600Y840740D03*
X946600Y815340D03*
X946600Y789940D03*
X946600Y764540D03*
X946600Y739140D03*
X946600Y713740D03*
X1034600Y713740D03*
X1034600Y739140D03*
X1034600Y764540D03*
X1034600Y789940D03*
X1034600Y815340D03*
X1034600Y840740D03*
X1034600Y866140D03*
X1034600Y891540D03*
D12*
X623680Y42020D03*
X43680Y42020D03*
X43680Y532020D03*
X623680Y532020D03*
D10*
X574980Y519320D03*
D11*
X549580Y519320D03*
X524180Y519320D03*
X498780Y519320D03*
X473380Y519320D03*
X447980Y519320D03*
X574980Y544720D03*
X549580Y544720D03*
X524180Y544720D03*
X498780Y544720D03*
X473380Y544720D03*
X447980Y544720D03*
X422580Y519320D03*
X422580Y544720D03*
X397180Y519320D03*
X371780Y519320D03*
X346380Y519320D03*
X320980Y519320D03*
X295580Y519320D03*
X270180Y519320D03*
X397180Y544720D03*
X371780Y544720D03*
X346380Y544720D03*
X320980Y544720D03*
X295580Y544720D03*
X270180Y544720D03*
X244780Y519320D03*
X244780Y544720D03*
X219380Y519320D03*
X193980Y519320D03*
X168580Y519320D03*
X143180Y519320D03*
X117780Y519320D03*
X92380Y519320D03*
X219380Y544720D03*
X193980Y544720D03*
X168580Y544720D03*
X143180Y544720D03*
X117780Y544720D03*
X92380Y544720D03*
X1420622Y776656D03*
X1293622Y776656D03*
X1420622Y802056D03*
X1420622Y827456D03*
X1420622Y852856D03*
X1420622Y878256D03*
X1420622Y751256D03*
X1420622Y725856D03*
D10*
X1420622Y700456D03*
D11*
X1293622Y751256D03*
X1293622Y725856D03*
X1293622Y700456D03*
X1293622Y802056D03*
X1293622Y827456D03*
X1293622Y852856D03*
X1293622Y878256D03*
X1168400Y942340D03*
X1143400Y942340D03*
D10*
X1193400Y942340D03*
D11*
X1598422Y776656D03*
X1471422Y776656D03*
X1598422Y802056D03*
X1598422Y827456D03*
X1598422Y852856D03*
X1598422Y878256D03*
X1598422Y751256D03*
X1598422Y725856D03*
D10*
X1598422Y700456D03*
D11*
X1471422Y751256D03*
X1471422Y725856D03*
X1471422Y700456D03*
X1471422Y802056D03*
X1471422Y827456D03*
X1471422Y852856D03*
X1471422Y878256D03*
X1282700Y942340D03*
X1257700Y942340D03*
D10*
X1307700Y942340D03*
X508000Y598190D03*
D11*
X533400Y598190D03*
X558800Y598190D03*
X584200Y598190D03*
X609600Y598190D03*
X635000Y598190D03*
X660400Y598190D03*
X685800Y598190D03*
X711200Y598190D03*
X736600Y598190D03*
X762000Y598190D03*
X787400Y598190D03*
X812800Y598190D03*
X838200Y598190D03*
X838200Y676890D03*
X812800Y676890D03*
X787400Y676890D03*
X762000Y676890D03*
X736600Y676890D03*
X711200Y676890D03*
X685800Y676890D03*
X660400Y676890D03*
X635000Y676890D03*
X609600Y676890D03*
X584200Y676890D03*
X558800Y676890D03*
X533400Y676890D03*
X508000Y676890D03*
D10*
X114300Y598190D03*
D11*
X139700Y598190D03*
X165100Y598190D03*
X190500Y598190D03*
X215900Y598190D03*
X241300Y598190D03*
X266700Y598190D03*
X292100Y598190D03*
X317500Y598190D03*
X342900Y598190D03*
X368300Y598190D03*
X393700Y598190D03*
X419100Y598190D03*
X444500Y598190D03*
X444500Y676890D03*
X419100Y676890D03*
X393700Y676890D03*
X368300Y676890D03*
X342900Y676890D03*
X317500Y676890D03*
X292100Y676890D03*
X266700Y676890D03*
X241300Y676890D03*
X215900Y676890D03*
X190500Y676890D03*
X165100Y676890D03*
X139700Y676890D03*
X114300Y676890D03*
D10*
X1497022Y611556D03*
D11*
X1522022Y611556D03*
D10*
X1306522Y611556D03*
D11*
X1331522Y611556D03*
X1602922Y493256D03*
X1602922Y468256D03*
X1602922Y443256D03*
X1602922Y418256D03*
X1602922Y393256D03*
X1602922Y368256D03*
D10*
X1587922Y278256D03*
X1587922Y228256D03*
X1252982Y90746D03*
X1252982Y35746D03*
D11*
X1575162Y39116D03*
X1525162Y39116D03*
D10*
X1447800Y939800D03*
D11*
X1422000Y939800D03*
X1396200Y939800D03*
X1370400Y939800D03*
D10*
X1587500Y939800D03*
D11*
X1561700Y939800D03*
X1535900Y939800D03*
X1510100Y939800D03*
D10*
X1219200Y823400D03*
X1219200Y878400D03*
X1117600Y789500D03*
X1117600Y734500D03*
D13*
X127000Y438150D03*
X127000Y63500D03*
X825500Y438150D03*
X825500Y63500D03*
X1447800Y438150D03*
X1447800Y63500D03*
X1117600Y850900D03*
X1219200Y762000D03*
D10*
X1371600Y71120D03*
D11*
X1371600Y45720D03*
D10*
X203200Y742950D03*
D11*
X203200Y768350D03*
D10*
X25400Y633730D03*
D11*
X50800Y633730D03*
X53900Y107950D03*
X123900Y107950D03*
D14*
X419100Y588030D02*
X419100Y598190D01*
X419100Y588030D02*
X430550Y576580D01*
X791190Y576580D02*
X812800Y598190D01*
X537210Y576580D02*
X430550Y576580D01*
X537210Y576580D02*
X791190Y576580D01*
X549580Y519320D02*
X537210Y531690D01*
X537210Y576580D01*
X773410Y584200D02*
X787400Y598190D01*
X773410Y584200D02*
X477520Y584200D01*
X450850Y610870D01*
X406380Y610870D01*
X393700Y598190D01*
X511810Y531690D02*
X524180Y519320D01*
X511810Y531690D02*
X511810Y552450D01*
X492760Y571500D01*
X410230Y571500D02*
X393700Y588030D01*
X393700Y598190D01*
X410230Y571500D02*
X492760Y571500D01*
X447980Y519320D02*
X472000Y495300D01*
X817880Y495300D01*
X906780Y584200D01*
X906780Y858520D01*
X939800Y891540D01*
X946600Y891540D01*
X430546Y519320D02*
X422580Y519320D01*
X430546Y519320D02*
X459646Y490220D01*
X820420Y490220D01*
X911860Y581660D01*
X911860Y833120D01*
X944880Y866140D01*
X946600Y866140D01*
X916940Y579556D02*
X822524Y485140D01*
X403876Y519320D02*
X397180Y519320D01*
X403876Y519320D02*
X438056Y485140D01*
X822524Y485140D01*
X916940Y709480D02*
X946600Y739140D01*
X916940Y709480D02*
X916940Y579556D01*
X371780Y544720D02*
X355160Y561340D01*
X242696Y561340D02*
X232080Y550725D01*
X232080Y449816D02*
X277540Y404356D01*
X1514022Y404356D02*
X1602922Y493256D01*
X1514022Y404356D02*
X277540Y404356D01*
X242696Y561340D02*
X355160Y561340D01*
X232080Y550725D02*
X232080Y449816D01*
X1531802Y397136D02*
X1602922Y468256D01*
X219380Y453280D02*
X219380Y519320D01*
X219380Y453280D02*
X275524Y397136D01*
X1531802Y397136D01*
X1549582Y389916D02*
X1602922Y443256D01*
X1549582Y389916D02*
X272584Y389916D01*
X193980Y468520D01*
X193980Y519320D01*
X117780Y519320D02*
X268844Y368256D01*
X1602922Y368256D01*
X269244Y375476D02*
X143180Y501540D01*
X143180Y519320D01*
X1585142Y375476D02*
X1602922Y393256D01*
X1585142Y375476D02*
X269244Y375476D01*
X269644Y382696D02*
X168580Y483760D01*
X168580Y519320D01*
X1567362Y382696D02*
X1602922Y418256D01*
X1567362Y382696D02*
X269644Y382696D01*
X295580Y519320D02*
X297196Y519320D01*
X346616Y469900D01*
X944880Y469900D01*
X1257700Y894080D02*
X1257700Y942340D01*
X1257700Y894080D02*
X1156100Y792480D01*
X1156100Y681120D01*
X944880Y469900D01*
X322596Y519320D02*
X320980Y519320D01*
X322596Y519320D02*
X366936Y474980D01*
X939800Y474980D01*
X1148480Y937260D02*
X1143400Y942340D01*
X1148480Y937260D02*
X1148480Y683660D01*
X939800Y474980D01*
X385640Y480060D02*
X346380Y519320D01*
X1029100Y942340D02*
X1071880Y899560D01*
X937260Y480060D02*
X385640Y480060D01*
X937260Y480060D02*
X1071880Y614680D01*
X1071880Y899560D01*
X114300Y629940D02*
X114300Y598190D01*
X114300Y629940D02*
X45720Y698520D01*
X45720Y871220D01*
X66040Y891540D01*
X70300Y891540D01*
X139700Y612160D02*
X139700Y598190D01*
X139700Y612160D02*
X50800Y701060D01*
X50800Y846640D02*
X70300Y866140D01*
X50800Y846640D02*
X50800Y701060D01*
X161270Y598190D02*
X165100Y598190D01*
X161270Y598190D02*
X55880Y703580D01*
X55880Y724720D01*
X70300Y739140D01*
X158300Y683690D02*
X165100Y676890D01*
X158300Y683690D02*
X158300Y713740D01*
X139700Y720540D02*
X139700Y676890D01*
X139700Y720540D02*
X158300Y739140D01*
X114300Y676890D02*
X114300Y822140D01*
X158300Y866140D01*
X223520Y866960D02*
X223520Y712450D01*
X190500Y679430D02*
X190500Y676890D01*
X190500Y679430D02*
X223520Y712450D01*
X223520Y866960D02*
X248100Y891540D01*
X228600Y846640D02*
X228600Y689590D01*
X215900Y676890D01*
X228600Y846640D02*
X248100Y866140D01*
X355600Y661690D02*
X292100Y598190D01*
X355600Y661690D02*
X355600Y688340D01*
X406400Y739140D01*
X425900Y739140D01*
X329910Y661400D02*
X266700Y598190D01*
X329910Y661400D02*
X329910Y681219D01*
X368300Y719609D02*
X368300Y828040D01*
X406400Y866140D01*
X425900Y866140D01*
X368300Y719609D02*
X329910Y681219D01*
X318251Y694960D02*
X304510Y681219D01*
X304510Y670290D02*
X241300Y607080D01*
X241300Y598190D01*
X318251Y694960D02*
X335204Y694960D01*
X304510Y681219D02*
X304510Y670290D01*
X363220Y722976D02*
X363220Y830580D01*
X424180Y891540D01*
X425900Y891540D01*
X363220Y722976D02*
X335204Y694960D01*
X215900Y612140D02*
X215900Y598190D01*
X253710Y649950D02*
X253710Y683759D01*
X322580Y752629D02*
X322580Y858520D01*
X322580Y752629D02*
X253710Y683759D01*
X322580Y858520D02*
X330200Y866140D01*
X336100Y866140D01*
X253710Y649950D02*
X215900Y612140D01*
X266700Y676890D02*
X328950Y739140D01*
X336100Y739140D01*
X328950Y713740D02*
X292100Y676890D01*
X328950Y713740D02*
X336100Y713740D01*
X234710Y725750D02*
X234710Y683480D01*
X241300Y676890D01*
X234710Y725750D02*
X248100Y739140D01*
X495300Y661690D02*
X558800Y598190D01*
X495300Y695140D02*
X513900Y713740D01*
X495300Y695140D02*
X495300Y661690D01*
X490220Y641370D02*
X533400Y598190D01*
X490220Y641370D02*
X490220Y715460D01*
X513900Y739140D01*
X482600Y623590D02*
X508000Y598190D01*
X482600Y834840D02*
X513900Y866140D01*
X482600Y834840D02*
X482600Y623590D01*
X508000Y678160D02*
X585230Y755390D01*
X508000Y678160D02*
X508000Y676890D01*
X603700Y887834D02*
X603700Y891540D01*
X585230Y869364D02*
X585230Y755390D01*
X585230Y869364D02*
X603700Y887834D01*
X533400Y688340D02*
X533400Y676890D01*
X603700Y859894D02*
X603700Y866140D01*
X603700Y859894D02*
X590310Y846504D01*
X590310Y745250D01*
X533400Y688340D01*
X558800Y694240D02*
X558800Y676890D01*
X558800Y694240D02*
X603700Y739140D01*
X635000Y676890D02*
X671850Y713740D01*
X691700Y713740D01*
X671850Y739140D02*
X609600Y676890D01*
X671850Y739140D02*
X691700Y739140D01*
X673100Y765790D02*
X584200Y676890D01*
X673100Y847540D02*
X691700Y866140D01*
X673100Y847540D02*
X673100Y765790D01*
X647410Y661400D02*
X584200Y598190D01*
X647410Y661400D02*
X647410Y681219D01*
X667231Y701040D01*
X697230Y701040D01*
X756920Y760730D01*
X781500Y887834D02*
X781500Y891540D01*
X756920Y863254D02*
X756920Y760730D01*
X756920Y863254D02*
X781500Y887834D01*
X712480Y703570D02*
X685800Y676890D01*
X712480Y703570D02*
X717540Y703570D01*
X753110Y739140D02*
X781500Y739140D01*
X753110Y739140D02*
X717540Y703570D01*
X749010Y661400D02*
X685800Y598190D01*
X749010Y661400D02*
X749010Y681219D01*
X761211Y693420D01*
X849180Y693420D02*
X869500Y713740D01*
X849180Y693420D02*
X761211Y693420D01*
X723610Y661400D02*
X660400Y598190D01*
X723610Y661400D02*
X723610Y681219D01*
X740891Y698500D01*
X828860Y698500D02*
X869500Y739140D01*
X828860Y698500D02*
X740891Y698500D01*
X698210Y661400D02*
X635000Y598190D01*
X698210Y661400D02*
X698210Y681219D01*
X713346Y696354D01*
X800100Y726440D02*
X853440Y779780D01*
X853440Y861060D01*
X858520Y866140D01*
X869500Y866140D01*
X726481Y696354D02*
X713346Y696354D01*
X726481Y696354D02*
X756567Y726440D01*
X800100Y726440D01*
X177800Y784040D02*
X158300Y764540D01*
X177800Y929440D02*
X164900Y942340D01*
X177800Y929440D02*
X177800Y784040D01*
X158300Y840740D02*
X158300Y846640D01*
X171450Y859790D01*
X171450Y910790D01*
X139900Y942340D01*
X336100Y771710D02*
X336100Y764540D01*
X336100Y771710D02*
X350520Y786130D01*
X350520Y845332D01*
X354570Y849382D01*
X354570Y930470D01*
X342700Y942340D01*
X336100Y845716D02*
X336100Y840740D01*
X336100Y845716D02*
X349490Y859106D01*
X349490Y898574D01*
X317700Y930364D02*
X317700Y942340D01*
X317700Y930364D02*
X349490Y898574D01*
X513900Y764540D02*
X538480Y789120D01*
X538480Y924360D02*
X520500Y942340D01*
X538480Y924360D02*
X538480Y789120D01*
X513900Y840740D02*
X513900Y847910D01*
X528320Y862330D01*
X528320Y909520D01*
X495500Y942340D01*
X869500Y846640D02*
X869500Y840740D01*
X869500Y846640D02*
X882650Y859790D01*
X882650Y910790D01*
X851100Y942340D01*
X876100Y942340D02*
X876100Y924524D01*
X887730Y912894D01*
X887730Y782770D02*
X869500Y764540D01*
X887730Y782770D02*
X887730Y912894D01*
X704850Y853890D02*
X691700Y840740D01*
X704850Y910790D02*
X673300Y942340D01*
X704850Y910790D02*
X704850Y853890D01*
X698300Y924524D02*
X698300Y942340D01*
X698300Y924524D02*
X709930Y912894D01*
X709930Y782770D02*
X691700Y764540D01*
X709930Y782770D02*
X709930Y912894D01*
X1326642Y837616D02*
X1326642Y799516D01*
X1313942Y786816D01*
X1313942Y771576D01*
X1293622Y751256D01*
X1326642Y837616D02*
X1415618Y926592D01*
X1434592Y926592D02*
X1447800Y939800D01*
X1434592Y926592D02*
X1415618Y926592D01*
X1319022Y802056D02*
X1293622Y776656D01*
X1319022Y802056D02*
X1319022Y837616D01*
X1357122Y875716D02*
X1357122Y882142D01*
X1414780Y939800D01*
X1422000Y939800D01*
X1357122Y875716D02*
X1319022Y837616D01*
X1293622Y827456D02*
X1343222Y877056D01*
X1343222Y912622D01*
X1370400Y939800D01*
X1349502Y875716D02*
X1311402Y837616D01*
X1311402Y819836D01*
X1293622Y802056D01*
X1349502Y893102D02*
X1396200Y939800D01*
X1349502Y893102D02*
X1349502Y875716D01*
X1471422Y751256D02*
X1519936Y799770D01*
X1582420Y939800D02*
X1587500Y939800D01*
X1582420Y939800D02*
X1519936Y877316D01*
X1519936Y799770D01*
X1514202Y819436D02*
X1471422Y776656D01*
X1514202Y892302D02*
X1561700Y939800D01*
X1514202Y892302D02*
X1514202Y819436D01*
X1502480Y843439D02*
X1486497Y827456D01*
X1471422Y827456D01*
X1502480Y932180D02*
X1510100Y939800D01*
X1502480Y932180D02*
X1502480Y843439D01*
X1508722Y839356D02*
X1471422Y802056D01*
X1535900Y925830D02*
X1535900Y939800D01*
X1535900Y925830D02*
X1508722Y898652D01*
X1508722Y839356D01*
X253800Y924524D02*
X253800Y942340D01*
X253800Y924524D02*
X266570Y911754D01*
X266570Y783010D02*
X248100Y764540D01*
X266570Y783010D02*
X266570Y911754D01*
X248100Y845716D02*
X248100Y840740D01*
X248100Y845716D02*
X261490Y859106D01*
X261490Y909650D02*
X228800Y942340D01*
X261490Y909650D02*
X261490Y859106D01*
X603700Y769516D02*
X603700Y764540D01*
X622170Y911754D02*
X609400Y924524D01*
X609400Y942340D01*
X622170Y787986D02*
X603700Y769516D01*
X622170Y787986D02*
X622170Y911754D01*
X603700Y846360D02*
X603700Y840740D01*
X603700Y846360D02*
X617090Y859750D01*
X617090Y909650D01*
X584400Y942340D01*
X787200Y942340D02*
X787200Y924524D01*
X798830Y912894D01*
X798830Y781870D02*
X781500Y764540D01*
X798830Y781870D02*
X798830Y912894D01*
X793750Y852990D02*
X781500Y840740D01*
X793750Y910790D02*
X762200Y942340D01*
X793750Y910790D02*
X793750Y852990D01*
X946600Y764540D02*
X966270Y784210D01*
X966270Y941070D02*
X965000Y942340D01*
X966270Y941070D02*
X966270Y784210D01*
X946600Y840740D02*
X946600Y846986D01*
X959990Y860376D01*
X959990Y922350D02*
X940000Y942340D01*
X959990Y922350D02*
X959990Y860376D01*
X425900Y768800D02*
X425900Y764540D01*
X425900Y768800D02*
X444500Y787400D01*
X444500Y929440D01*
X431600Y942340D01*
X425900Y848256D02*
X425900Y840740D01*
X425900Y848256D02*
X439290Y861646D01*
X439290Y909650D02*
X406600Y942340D01*
X439290Y909650D02*
X439290Y861646D01*
X76000Y924524D02*
X76000Y942340D01*
X76000Y924524D02*
X87630Y912894D01*
X87630Y781870D02*
X70300Y764540D01*
X87630Y781870D02*
X87630Y912894D01*
X82550Y852990D02*
X70300Y840740D01*
X82550Y910790D02*
X51000Y942340D01*
X82550Y910790D02*
X82550Y852990D01*
D15*
X1219200Y762000D02*
X1270000Y711200D01*
X1270000Y609600D01*
X1441450Y438150D01*
X1447800Y438150D01*
M02*
