G04 EAGLE Gerber RS-274X export*
G75*
%MOMM*%
%FSLAX34Y34*%
%LPD*%
%IN*%
%IPPOS*%
%AMOC8*
5,1,8,0,0,1.08239X$1,22.5*%
G01*
%ADD10C,0.254000*%


D10*
X0Y0D02*
X1625600Y0D01*
X1625600Y1003300D01*
X0Y1003300D01*
X0Y0D01*
X1574547Y526276D02*
X1574615Y527313D01*
X1574751Y528343D01*
X1574953Y529363D01*
X1575222Y530367D01*
X1575557Y531351D01*
X1575954Y532311D01*
X1576414Y533243D01*
X1576934Y534144D01*
X1577511Y535008D01*
X1578144Y535832D01*
X1578829Y536614D01*
X1579564Y537349D01*
X1580346Y538034D01*
X1581170Y538667D01*
X1582034Y539244D01*
X1582935Y539764D01*
X1583867Y540224D01*
X1584827Y540621D01*
X1585811Y540956D01*
X1586815Y541225D01*
X1587835Y541427D01*
X1588865Y541563D01*
X1589902Y541631D01*
X1590942Y541631D01*
X1591979Y541563D01*
X1593009Y541427D01*
X1594029Y541225D01*
X1595033Y540956D01*
X1596017Y540621D01*
X1596977Y540224D01*
X1597909Y539764D01*
X1598810Y539244D01*
X1599674Y538667D01*
X1600498Y538034D01*
X1601280Y537349D01*
X1602015Y536614D01*
X1602700Y535832D01*
X1603333Y535008D01*
X1603910Y534144D01*
X1604430Y533243D01*
X1604890Y532311D01*
X1605287Y531351D01*
X1605622Y530367D01*
X1605891Y529363D01*
X1606093Y528343D01*
X1606229Y527313D01*
X1606297Y526276D01*
X1606297Y525236D01*
X1606229Y524199D01*
X1606093Y523169D01*
X1605891Y522149D01*
X1605622Y521145D01*
X1605287Y520161D01*
X1604890Y519201D01*
X1604430Y518269D01*
X1603910Y517368D01*
X1603333Y516504D01*
X1602700Y515680D01*
X1602015Y514898D01*
X1601280Y514163D01*
X1600498Y513478D01*
X1599674Y512845D01*
X1598810Y512268D01*
X1597909Y511748D01*
X1596977Y511288D01*
X1596017Y510891D01*
X1595033Y510556D01*
X1594029Y510287D01*
X1593009Y510085D01*
X1591979Y509949D01*
X1590942Y509881D01*
X1589902Y509881D01*
X1588865Y509949D01*
X1587835Y510085D01*
X1586815Y510287D01*
X1585811Y510556D01*
X1584827Y510891D01*
X1583867Y511288D01*
X1582935Y511748D01*
X1582034Y512268D01*
X1581170Y512845D01*
X1580346Y513478D01*
X1579564Y514163D01*
X1578829Y514898D01*
X1578144Y515680D01*
X1577511Y516504D01*
X1576934Y517368D01*
X1576414Y518269D01*
X1575954Y519201D01*
X1575557Y520161D01*
X1575222Y521145D01*
X1574953Y522149D01*
X1574751Y523169D01*
X1574615Y524199D01*
X1574547Y525236D01*
X1574547Y526276D01*
X1209547Y526276D02*
X1209615Y527313D01*
X1209751Y528343D01*
X1209953Y529363D01*
X1210222Y530367D01*
X1210557Y531351D01*
X1210954Y532311D01*
X1211414Y533243D01*
X1211934Y534144D01*
X1212511Y535008D01*
X1213144Y535832D01*
X1213829Y536614D01*
X1214564Y537349D01*
X1215346Y538034D01*
X1216170Y538667D01*
X1217034Y539244D01*
X1217935Y539764D01*
X1218867Y540224D01*
X1219827Y540621D01*
X1220811Y540956D01*
X1221815Y541225D01*
X1222835Y541427D01*
X1223865Y541563D01*
X1224902Y541631D01*
X1225942Y541631D01*
X1226979Y541563D01*
X1228009Y541427D01*
X1229029Y541225D01*
X1230033Y540956D01*
X1231017Y540621D01*
X1231977Y540224D01*
X1232909Y539764D01*
X1233810Y539244D01*
X1234674Y538667D01*
X1235498Y538034D01*
X1236280Y537349D01*
X1237015Y536614D01*
X1237700Y535832D01*
X1238333Y535008D01*
X1238910Y534144D01*
X1239430Y533243D01*
X1239890Y532311D01*
X1240287Y531351D01*
X1240622Y530367D01*
X1240891Y529363D01*
X1241093Y528343D01*
X1241229Y527313D01*
X1241297Y526276D01*
X1241297Y525236D01*
X1241229Y524199D01*
X1241093Y523169D01*
X1240891Y522149D01*
X1240622Y521145D01*
X1240287Y520161D01*
X1239890Y519201D01*
X1239430Y518269D01*
X1238910Y517368D01*
X1238333Y516504D01*
X1237700Y515680D01*
X1237015Y514898D01*
X1236280Y514163D01*
X1235498Y513478D01*
X1234674Y512845D01*
X1233810Y512268D01*
X1232909Y511748D01*
X1231977Y511288D01*
X1231017Y510891D01*
X1230033Y510556D01*
X1229029Y510287D01*
X1228009Y510085D01*
X1226979Y509949D01*
X1225942Y509881D01*
X1224902Y509881D01*
X1223865Y509949D01*
X1222835Y510085D01*
X1221815Y510287D01*
X1220811Y510556D01*
X1219827Y510891D01*
X1218867Y511288D01*
X1217935Y511748D01*
X1217034Y512268D01*
X1216170Y512845D01*
X1215346Y513478D01*
X1214564Y514163D01*
X1213829Y514898D01*
X1213144Y515680D01*
X1212511Y516504D01*
X1211934Y517368D01*
X1211414Y518269D01*
X1210954Y519201D01*
X1210557Y520161D01*
X1210222Y521145D01*
X1209953Y522149D01*
X1209751Y523169D01*
X1209615Y524199D01*
X1209547Y525236D01*
X1209547Y526276D01*
X1209547Y161276D02*
X1209615Y162313D01*
X1209751Y163343D01*
X1209953Y164363D01*
X1210222Y165367D01*
X1210557Y166351D01*
X1210954Y167311D01*
X1211414Y168243D01*
X1211934Y169144D01*
X1212511Y170008D01*
X1213144Y170832D01*
X1213829Y171614D01*
X1214564Y172349D01*
X1215346Y173034D01*
X1216170Y173667D01*
X1217034Y174244D01*
X1217935Y174764D01*
X1218867Y175224D01*
X1219827Y175621D01*
X1220811Y175956D01*
X1221815Y176225D01*
X1222835Y176427D01*
X1223865Y176563D01*
X1224902Y176631D01*
X1225942Y176631D01*
X1226979Y176563D01*
X1228009Y176427D01*
X1229029Y176225D01*
X1230033Y175956D01*
X1231017Y175621D01*
X1231977Y175224D01*
X1232909Y174764D01*
X1233810Y174244D01*
X1234674Y173667D01*
X1235498Y173034D01*
X1236280Y172349D01*
X1237015Y171614D01*
X1237700Y170832D01*
X1238333Y170008D01*
X1238910Y169144D01*
X1239430Y168243D01*
X1239890Y167311D01*
X1240287Y166351D01*
X1240622Y165367D01*
X1240891Y164363D01*
X1241093Y163343D01*
X1241229Y162313D01*
X1241297Y161276D01*
X1241297Y160236D01*
X1241229Y159199D01*
X1241093Y158169D01*
X1240891Y157149D01*
X1240622Y156145D01*
X1240287Y155161D01*
X1239890Y154201D01*
X1239430Y153269D01*
X1238910Y152368D01*
X1238333Y151504D01*
X1237700Y150680D01*
X1237015Y149898D01*
X1236280Y149163D01*
X1235498Y148478D01*
X1234674Y147845D01*
X1233810Y147268D01*
X1232909Y146748D01*
X1231977Y146288D01*
X1231017Y145891D01*
X1230033Y145556D01*
X1229029Y145287D01*
X1228009Y145085D01*
X1226979Y144949D01*
X1225942Y144881D01*
X1224902Y144881D01*
X1223865Y144949D01*
X1222835Y145085D01*
X1221815Y145287D01*
X1220811Y145556D01*
X1219827Y145891D01*
X1218867Y146288D01*
X1217935Y146748D01*
X1217034Y147268D01*
X1216170Y147845D01*
X1215346Y148478D01*
X1214564Y149163D01*
X1213829Y149898D01*
X1213144Y150680D01*
X1212511Y151504D01*
X1211934Y152368D01*
X1211414Y153269D01*
X1210954Y154201D01*
X1210557Y155161D01*
X1210222Y156145D01*
X1209953Y157149D01*
X1209751Y158169D01*
X1209615Y159199D01*
X1209547Y160236D01*
X1209547Y161276D01*
X1574547Y161276D02*
X1574615Y162313D01*
X1574751Y163343D01*
X1574953Y164363D01*
X1575222Y165367D01*
X1575557Y166351D01*
X1575954Y167311D01*
X1576414Y168243D01*
X1576934Y169144D01*
X1577511Y170008D01*
X1578144Y170832D01*
X1578829Y171614D01*
X1579564Y172349D01*
X1580346Y173034D01*
X1581170Y173667D01*
X1582034Y174244D01*
X1582935Y174764D01*
X1583867Y175224D01*
X1584827Y175621D01*
X1585811Y175956D01*
X1586815Y176225D01*
X1587835Y176427D01*
X1588865Y176563D01*
X1589902Y176631D01*
X1590942Y176631D01*
X1591979Y176563D01*
X1593009Y176427D01*
X1594029Y176225D01*
X1595033Y175956D01*
X1596017Y175621D01*
X1596977Y175224D01*
X1597909Y174764D01*
X1598810Y174244D01*
X1599674Y173667D01*
X1600498Y173034D01*
X1601280Y172349D01*
X1602015Y171614D01*
X1602700Y170832D01*
X1603333Y170008D01*
X1603910Y169144D01*
X1604430Y168243D01*
X1604890Y167311D01*
X1605287Y166351D01*
X1605622Y165367D01*
X1605891Y164363D01*
X1606093Y163343D01*
X1606229Y162313D01*
X1606297Y161276D01*
X1606297Y160236D01*
X1606229Y159199D01*
X1606093Y158169D01*
X1605891Y157149D01*
X1605622Y156145D01*
X1605287Y155161D01*
X1604890Y154201D01*
X1604430Y153269D01*
X1603910Y152368D01*
X1603333Y151504D01*
X1602700Y150680D01*
X1602015Y149898D01*
X1601280Y149163D01*
X1600498Y148478D01*
X1599674Y147845D01*
X1598810Y147268D01*
X1597909Y146748D01*
X1596977Y146288D01*
X1596017Y145891D01*
X1595033Y145556D01*
X1594029Y145287D01*
X1593009Y145085D01*
X1591979Y144949D01*
X1590942Y144881D01*
X1589902Y144881D01*
X1588865Y144949D01*
X1587835Y145085D01*
X1586815Y145287D01*
X1585811Y145556D01*
X1584827Y145891D01*
X1583867Y146288D01*
X1582935Y146748D01*
X1582034Y147268D01*
X1581170Y147845D01*
X1580346Y148478D01*
X1579564Y149163D01*
X1578829Y149898D01*
X1578144Y150680D01*
X1577511Y151504D01*
X1576934Y152368D01*
X1576414Y153269D01*
X1575954Y154201D01*
X1575557Y155161D01*
X1575222Y156145D01*
X1574953Y157149D01*
X1574751Y158169D01*
X1574615Y159199D01*
X1574547Y160236D01*
X1574547Y161276D01*
M02*
