G04 EAGLE Gerber RS-274X export*
G75*
%MOMM*%
%FSLAX34Y34*%
%LPD*%
%INSoldermask Bottom*%
%IPPOS*%
%AMOC8*
5,1,8,0,0,1.08239X$1,22.5*%
G01*
%ADD10R,1.828800X1.828800*%
%ADD11C,1.828800*%
%ADD12C,6.352400*%
%ADD13C,3.327400*%
%ADD14C,4.597400*%


D10*
X697386Y41124D03*
X907386Y41124D03*
X697386Y546124D03*
X907386Y546124D03*
X960784Y41632D03*
X1170784Y41632D03*
X960784Y546632D03*
X1170784Y546632D03*
D11*
X1054100Y942340D03*
X1029100Y942340D03*
D10*
X1079100Y942340D03*
D11*
X51000Y942340D03*
D10*
X76000Y942340D03*
D11*
X851100Y942340D03*
D10*
X876100Y942340D03*
D11*
X940000Y942340D03*
D10*
X965000Y942340D03*
D11*
X139900Y942340D03*
D10*
X164900Y942340D03*
D11*
X228800Y942340D03*
D10*
X253800Y942340D03*
D11*
X317700Y942340D03*
D10*
X342700Y942340D03*
D11*
X406600Y942340D03*
D10*
X431600Y942340D03*
D11*
X495500Y942340D03*
D10*
X520500Y942340D03*
D11*
X584400Y942340D03*
D10*
X609400Y942340D03*
D11*
X673300Y942340D03*
D10*
X698300Y942340D03*
D11*
X762200Y942340D03*
D10*
X787200Y942340D03*
X70300Y891540D03*
D11*
X70300Y866140D03*
X70300Y840740D03*
X70300Y815340D03*
X70300Y789940D03*
X70300Y764540D03*
X70300Y739140D03*
X70300Y713740D03*
X158300Y713740D03*
X158300Y739140D03*
X158300Y764540D03*
X158300Y789940D03*
X158300Y815340D03*
X158300Y840740D03*
X158300Y866140D03*
X158300Y891540D03*
D10*
X248100Y891540D03*
D11*
X248100Y866140D03*
X248100Y840740D03*
X248100Y815340D03*
X248100Y789940D03*
X248100Y764540D03*
X248100Y739140D03*
X248100Y713740D03*
X336100Y713740D03*
X336100Y739140D03*
X336100Y764540D03*
X336100Y789940D03*
X336100Y815340D03*
X336100Y840740D03*
X336100Y866140D03*
X336100Y891540D03*
D10*
X425900Y891540D03*
D11*
X425900Y866140D03*
X425900Y840740D03*
X425900Y815340D03*
X425900Y789940D03*
X425900Y764540D03*
X425900Y739140D03*
X425900Y713740D03*
X513900Y713740D03*
X513900Y739140D03*
X513900Y764540D03*
X513900Y789940D03*
X513900Y815340D03*
X513900Y840740D03*
X513900Y866140D03*
X513900Y891540D03*
D10*
X603700Y891540D03*
D11*
X603700Y866140D03*
X603700Y840740D03*
X603700Y815340D03*
X603700Y789940D03*
X603700Y764540D03*
X603700Y739140D03*
X603700Y713740D03*
X691700Y713740D03*
X691700Y739140D03*
X691700Y764540D03*
X691700Y789940D03*
X691700Y815340D03*
X691700Y840740D03*
X691700Y866140D03*
X691700Y891540D03*
D10*
X781500Y891540D03*
D11*
X781500Y866140D03*
X781500Y840740D03*
X781500Y815340D03*
X781500Y789940D03*
X781500Y764540D03*
X781500Y739140D03*
X781500Y713740D03*
X869500Y713740D03*
X869500Y739140D03*
X869500Y764540D03*
X869500Y789940D03*
X869500Y815340D03*
X869500Y840740D03*
X869500Y866140D03*
X869500Y891540D03*
D10*
X946600Y891540D03*
D11*
X946600Y866140D03*
X946600Y840740D03*
X946600Y815340D03*
X946600Y789940D03*
X946600Y764540D03*
X946600Y739140D03*
X946600Y713740D03*
X1034600Y713740D03*
X1034600Y739140D03*
X1034600Y764540D03*
X1034600Y789940D03*
X1034600Y815340D03*
X1034600Y840740D03*
X1034600Y866140D03*
X1034600Y891540D03*
D12*
X623680Y42020D03*
X43680Y42020D03*
X43680Y532020D03*
X623680Y532020D03*
D10*
X574980Y519320D03*
D11*
X549580Y519320D03*
X524180Y519320D03*
X498780Y519320D03*
X473380Y519320D03*
X447980Y519320D03*
X574980Y544720D03*
X549580Y544720D03*
X524180Y544720D03*
X498780Y544720D03*
X473380Y544720D03*
X447980Y544720D03*
X422580Y519320D03*
X422580Y544720D03*
X397180Y519320D03*
X371780Y519320D03*
X346380Y519320D03*
X320980Y519320D03*
X295580Y519320D03*
X270180Y519320D03*
X397180Y544720D03*
X371780Y544720D03*
X346380Y544720D03*
X320980Y544720D03*
X295580Y544720D03*
X270180Y544720D03*
X244780Y519320D03*
X244780Y544720D03*
X219380Y519320D03*
X193980Y519320D03*
X168580Y519320D03*
X143180Y519320D03*
X117780Y519320D03*
X92380Y519320D03*
X219380Y544720D03*
X193980Y544720D03*
X168580Y544720D03*
X143180Y544720D03*
X117780Y544720D03*
X92380Y544720D03*
X1420622Y776656D03*
X1293622Y776656D03*
X1420622Y802056D03*
X1420622Y827456D03*
X1420622Y852856D03*
X1420622Y878256D03*
X1420622Y751256D03*
X1420622Y725856D03*
D10*
X1420622Y700456D03*
D11*
X1293622Y751256D03*
X1293622Y725856D03*
X1293622Y700456D03*
X1293622Y802056D03*
X1293622Y827456D03*
X1293622Y852856D03*
X1293622Y878256D03*
X1168400Y942340D03*
X1143400Y942340D03*
D10*
X1193400Y942340D03*
D11*
X1598422Y776656D03*
X1471422Y776656D03*
X1598422Y802056D03*
X1598422Y827456D03*
X1598422Y852856D03*
X1598422Y878256D03*
X1598422Y751256D03*
X1598422Y725856D03*
D10*
X1598422Y700456D03*
D11*
X1471422Y751256D03*
X1471422Y725856D03*
X1471422Y700456D03*
X1471422Y802056D03*
X1471422Y827456D03*
X1471422Y852856D03*
X1471422Y878256D03*
X1282700Y942340D03*
X1257700Y942340D03*
D10*
X1307700Y942340D03*
X508000Y598190D03*
D11*
X533400Y598190D03*
X558800Y598190D03*
X584200Y598190D03*
X609600Y598190D03*
X635000Y598190D03*
X660400Y598190D03*
X685800Y598190D03*
X711200Y598190D03*
X736600Y598190D03*
X762000Y598190D03*
X787400Y598190D03*
X812800Y598190D03*
X838200Y598190D03*
X838200Y676890D03*
X812800Y676890D03*
X787400Y676890D03*
X762000Y676890D03*
X736600Y676890D03*
X711200Y676890D03*
X685800Y676890D03*
X660400Y676890D03*
X635000Y676890D03*
X609600Y676890D03*
X584200Y676890D03*
X558800Y676890D03*
X533400Y676890D03*
X508000Y676890D03*
D10*
X114300Y598190D03*
D11*
X139700Y598190D03*
X165100Y598190D03*
X190500Y598190D03*
X215900Y598190D03*
X241300Y598190D03*
X266700Y598190D03*
X292100Y598190D03*
X317500Y598190D03*
X342900Y598190D03*
X368300Y598190D03*
X393700Y598190D03*
X419100Y598190D03*
X444500Y598190D03*
X444500Y676890D03*
X419100Y676890D03*
X393700Y676890D03*
X368300Y676890D03*
X342900Y676890D03*
X317500Y676890D03*
X292100Y676890D03*
X266700Y676890D03*
X241300Y676890D03*
X215900Y676890D03*
X190500Y676890D03*
X165100Y676890D03*
X139700Y676890D03*
X114300Y676890D03*
D10*
X1497022Y611556D03*
D11*
X1522022Y611556D03*
D10*
X1306522Y611556D03*
D11*
X1331522Y611556D03*
D13*
X1590422Y525756D03*
X1225422Y525756D03*
X1225422Y160756D03*
X1590422Y160756D03*
D11*
X1602922Y493256D03*
X1602922Y468256D03*
X1602922Y443256D03*
X1602922Y418256D03*
X1602922Y393256D03*
X1602922Y368256D03*
D10*
X1587922Y278256D03*
X1587922Y228256D03*
X1252982Y90746D03*
X1252982Y35746D03*
D11*
X1575162Y39116D03*
X1525162Y39116D03*
D10*
X1447800Y939800D03*
D11*
X1422000Y939800D03*
X1396200Y939800D03*
X1370400Y939800D03*
D10*
X1587500Y939800D03*
D11*
X1561700Y939800D03*
X1535900Y939800D03*
X1510100Y939800D03*
D10*
X1219200Y823400D03*
X1219200Y878400D03*
X1117600Y789500D03*
X1117600Y734500D03*
D14*
X127000Y438150D03*
X127000Y63500D03*
X825500Y438150D03*
X825500Y63500D03*
X1447800Y438150D03*
X1447800Y63500D03*
X1117600Y850900D03*
X1219200Y762000D03*
D10*
X1371600Y71120D03*
D11*
X1371600Y45720D03*
D10*
X203200Y742950D03*
D11*
X203200Y768350D03*
D10*
X25400Y633730D03*
D11*
X50800Y633730D03*
X53900Y107950D03*
X123900Y107950D03*
M02*
