M48
;GenerationSoftware,Autodesk,EAGLE,9.6.2*%
;CreationDate,2022-04-13T04:09:45Z*%
FMAT,2
ICI,OFF
METRIC,TZ,000.000
T2C0.900
T1C3.175
%
G90
M71
T1
X159042Y52576
X122542Y52576
X122542Y16076
X159042Y16076
X62368Y53202
X62368Y4202
X4368Y4202
X4368Y53202
X12700Y43815
X12700Y6350
X82550Y43815
X82550Y6350
X144780Y43815
X144780Y6350
X111760Y85090
X121920Y76200
T2
X105410Y94234
X102910Y94234
X107910Y94234
X5100Y94234
X7600Y94234
X85110Y94234
X87610Y94234
X94000Y94234
X96500Y94234
X13990Y94234
X16490Y94234
X22880Y94234
X25380Y94234
X31770Y94234
X34270Y94234
X40660Y94234
X43160Y94234
X49550Y94234
X52050Y94234
X58440Y94234
X60940Y94234
X67330Y94234
X69830Y94234
X76220Y94234
X78720Y94234
X7030Y89154
X7030Y86614
X7030Y84074
X7030Y81534
X7030Y78994
X7030Y76454
X7030Y73914
X7030Y71374
X15830Y71374
X15830Y73914
X15830Y76454
X15830Y78994
X15830Y81534
X15830Y84074
X15830Y86614
X15830Y89154
X24810Y89154
X24810Y86614
X24810Y84074
X24810Y81534
X24810Y78994
X24810Y76454
X24810Y73914
X24810Y71374
X33610Y71374
X33610Y73914
X33610Y76454
X33610Y78994
X33610Y81534
X33610Y84074
X33610Y86614
X33610Y89154
X42590Y89154
X42590Y86614
X42590Y84074
X42590Y81534
X42590Y78994
X42590Y76454
X42590Y73914
X42590Y71374
X51390Y71374
X51390Y73914
X51390Y76454
X51390Y78994
X51390Y81534
X51390Y84074
X51390Y86614
X51390Y89154
X60370Y89154
X60370Y86614
X60370Y84074
X60370Y81534
X60370Y78994
X60370Y76454
X60370Y73914
X60370Y71374
X69170Y71374
X69170Y73914
X69170Y76454
X69170Y78994
X69170Y81534
X69170Y84074
X69170Y86614
X69170Y89154
X78150Y89154
X78150Y86614
X78150Y84074
X78150Y81534
X78150Y78994
X78150Y76454
X78150Y73914
X78150Y71374
X86950Y71374
X86950Y73914
X86950Y76454
X86950Y78994
X86950Y81534
X86950Y84074
X86950Y86614
X86950Y89154
X94660Y89154
X94660Y86614
X94660Y84074
X94660Y81534
X94660Y78994
X94660Y76454
X94660Y73914
X94660Y71374
X103460Y71374
X103460Y73914
X103460Y76454
X103460Y78994
X103460Y81534
X103460Y84074
X103460Y86614
X103460Y89154
X57498Y51932
X54958Y51932
X52418Y51932
X49878Y51932
X47338Y51932
X44798Y51932
X57498Y54472
X54958Y54472
X52418Y54472
X49878Y54472
X47338Y54472
X44798Y54472
X42258Y51932
X42258Y54472
X39718Y51932
X37178Y51932
X34638Y51932
X32098Y51932
X29558Y51932
X27018Y51932
X39718Y54472
X37178Y54472
X34638Y54472
X32098Y54472
X29558Y54472
X27018Y54472
X24478Y51932
X24478Y54472
X21938Y51932
X19398Y51932
X16858Y51932
X14318Y51932
X11778Y51932
X9238Y51932
X21938Y54472
X19398Y54472
X16858Y54472
X14318Y54472
X11778Y54472
X9238Y54472
X142062Y77666
X129362Y77666
X142062Y80206
X142062Y82746
X142062Y85286
X142062Y87826
X142062Y75126
X142062Y72586
X142062Y70046
X129362Y75126
X129362Y72586
X129362Y70046
X129362Y80206
X129362Y82746
X129362Y85286
X129362Y87826
X116840Y94234
X114340Y94234
X119340Y94234
X159842Y77666
X147142Y77666
X159842Y80206
X159842Y82746
X159842Y85286
X159842Y87826
X159842Y75126
X159842Y72586
X159842Y70046
X147142Y75126
X147142Y72586
X147142Y70046
X147142Y80206
X147142Y82746
X147142Y85286
X147142Y87826
X128270Y94234
X125770Y94234
X130770Y94234
X50800Y59819
X53340Y59819
X55880Y59819
X58420Y59819
X60960Y59819
X63500Y59819
X66040Y59819
X68580Y59819
X71120Y59819
X73660Y59819
X76200Y59819
X78740Y59819
X81280Y59819
X83820Y59819
X83820Y67689
X81280Y67689
X78740Y67689
X76200Y67689
X73660Y67689
X71120Y67689
X68580Y67689
X66040Y67689
X63500Y67689
X60960Y67689
X58420Y67689
X55880Y67689
X53340Y67689
X50800Y67689
X11430Y59819
X13970Y59819
X16510Y59819
X19050Y59819
X21590Y59819
X24130Y59819
X26670Y59819
X29210Y59819
X31750Y59819
X34290Y59819
X36830Y59819
X39370Y59819
X41910Y59819
X44450Y59819
X44450Y67689
X41910Y67689
X39370Y67689
X36830Y67689
X34290Y67689
X31750Y67689
X29210Y67689
X26670Y67689
X24130Y67689
X21590Y67689
X19050Y67689
X16510Y67689
X13970Y67689
X11430Y67689
X149702Y61156
X152202Y61156
X130652Y61156
X133152Y61156
X160292Y49326
X160292Y46826
X160292Y44326
X160292Y41826
X160292Y39326
X160292Y36826
X158792Y27826
X158792Y22826
X125298Y9075
X125298Y3575
X157516Y3912
X152516Y3912
X144780Y93980
X142200Y93980
X139620Y93980
X137040Y93980
X158750Y93980
X156170Y93980
X153590Y93980
X151010Y93980
X121920Y82340
X121920Y87840
X111760Y78950
X111760Y73450
X69739Y4112
X90739Y4112
X69739Y54612
X90739Y54612
X96078Y4163
X117078Y4163
X96078Y54663
X117078Y54663
X137160Y7112
X137160Y4572
X20320Y74295
X20320Y76835
X2540Y63373
X5080Y63373
X5390Y10795
X12390Y10795
M30